<?xml version="1.0" encoding="utf-8"?>
<!-- Generator: Adobe Illustrator 23.0.5, SVG Export Plug-In . SVG Version: 6.00 Build 0)  -->
<svg version="1.1" id="Layer_1" xmlns="http://www.w3.org/2000/svg" xmlns:xlink="http://www.w3.org/1999/xlink" x="0px" y="0px"
	 viewBox="0 0 250 250" style="enable-background:new 0 0 250 250;" xml:space="preserve">
<style type="text/css">
	.st0{fill:#DEE3FE;}
	.st1{fill:#E6EAFE;}
	.st2{fill:#4A64FA;}
	.st3{fill:#B7C4E1;}
	.st4{fill:#3A45D9;}
	.st5{fill:#5E71F7;}
	.st6{fill:#3F5DEC;}
	.st7{fill:#3A46DA;}
	.st8{fill:#8696EB;}
	.st9{fill:#607DED;}
	.st10{fill:#405EEC;}
	.st11{fill:#D3DCFD;}
	.st12{fill:#415FEC;}
</style>
<path class="st0" d="M121.53,3.21c14.35,0.35,26.96,4.89,37.35,14.63c7.78,7.29,14.94,15.24,22.5,22.77
	c5.19,5.16,10.65,10.05,15.88,15.17c4.47,4.38,8.97,8.75,13.11,13.43c4.12,4.66,8.39,9.37,11.57,14.67
	c4.61,7.69,8.56,15.82,12.3,23.99c3.78,8.23,6.57,16.84,8.27,25.81c3.1,16.3,0.52,31.46-8.38,45.52
	c-4.26,6.72-9.14,12.93-14.84,18.46c-7.5,7.28-14.9,14.68-22.68,21.66c-6.84,6.14-13.89,12.12-21.3,17.54
	c-8.94,6.53-18.9,11.13-30.02,12.69c-7.09,1-14.09,0.25-20.98-1.62c-11.29-3.07-21.47-8.59-31.65-14.17
	c-6.76-3.7-13.76-6.97-20.44-10.8c-8.52-4.88-17.02-9.83-25.16-15.31c-9.29-6.26-16.22-14.88-22.04-24.39
	c-6.05-9.89-10.61-20.43-13.11-31.77c-1.61-7.29-2.59-14.72-2.06-22.2c0.71-10.12,3.4-19.81,7.85-28.91
	c6.27-12.82,12.63-25.61,19.38-38.18c4.64-8.65,9.66-17.13,15.11-25.29c5.4-8.1,12.96-14.09,21.38-18.96
	c9.36-5.41,19.16-9.83,29.76-12.06C109.31,4.63,115.45,4.08,121.53,3.21z M71.83,110.13c0,0.17,0,0.34,0,0.52
	c0,15.12,0,30.24,0,45.35c0,0.17,0,0.34,0,0.51c-0.02,0.69-0.02,1.38-0.06,2.06c-0.41,5.73,4.66,11.74,10.97,11.82
	c5.96,0.07,11.92,0.14,17.88,0.15c19.18,0.02,38.36,0.01,57.54,0c0.83,0,1.67-0.1,2.5-0.15c0.46,0.06,0.92,0.11,1.38,0.17
	c0.48,0,0.97-0.01,1.45-0.01c1.52,0.06,3.04,0.14,4.56,0.16c8.43,0.11,14.5-5.14,13.67-14.66c0.01-15.3,0.01-30.6,0.02-45.9
	c0.02-2.05,0.18-4.11,0.05-6.15c-0.24-3.69-1.43-7.13-4.64-9.17c-3.49-2.22-7.29-3.96-10.95-5.9c0.01-7.8,0.03-15.59,0.03-23.39
	c0-3.44-1.54-4.93-5.04-4.93c-18.5,0-37,0-55.5,0c-4.27,0-8.55-0.01-12.82-0.01c-4.15,0-5.51,1.38-5.51,5.63
	c-0.02,7.56-0.03,15.11-0.04,22.67c-3.66,2.03-7.33,4.07-10.99,6.1c-1.35,1.87-3.38,3.56-3.9,5.64
	C71.64,103.66,71.97,106.95,71.83,110.13z"/>
<path class="st1" d="M105.67,60.61c18.5,0,37,0,55.5,0c3.5,0,5.04,1.49,5.04,4.93c0,7.8-0.02,15.59-0.03,23.39
	c0.01,9.68,0.02,19.35,0.03,29.03c-0.59,0.45-1.14,0.99-1.79,1.34c-6.58,3.57-13.19,7.11-19.78,10.66
	c-1.52,0.76-3.05,1.52-4.57,2.27c-3.53-3.32-7.18-6.52-10.55-10c-1.92-1.98-3.4-4.39-5.09-6.61c7.09-0.02,14.17,0,21.26-0.07
	c2.91-0.03,4.48-1.54,4.46-4.03c-0.02-2.61-1.39-3.76-4.54-3.79c-7.62-0.07-15.24-0.14-22.85-0.18c-0.97,0-1.95,0.18-2.92,0.28
	c-0.44-0.15-0.88-0.29-1.31-0.44c-0.39-1.06-0.78-2.12-1.16-3.18c-0.53-1.48-1.06-2.96-1.58-4.43c0.46-0.02,0.91-0.07,1.37-0.07
	c9.56,0,19.11,0.01,28.67-0.01c2.97-0.01,4.37-1.35,4.34-4.03c-0.03-2.42-1.55-3.76-4.41-3.8c-1.99-0.03-3.98-0.01-5.96,0
	c-9.09,0.04-18.19,0.09-27.28,0.13c-0.15-0.06-0.29-0.12-0.44-0.18c-0.74-2.45-1.49-4.89-2.23-7.34c0.13-0.12,0.27-0.25,0.4-0.37
	c5.58-0.02,11.16-0.06,16.74-0.07c6.34-0.01,12.69,0.02,19.03-0.02c2.87-0.02,4.28-1.53,4.14-4.26c-0.12-2.34-1.57-3.54-4.38-3.55
	c-12.61-0.04-25.22-0.06-37.83-0.09c-0.15-0.74-0.34-1.48-0.45-2.23C106.88,69.46,106.28,65.03,105.67,60.61z"/>
<path class="st2" d="M140.08,132.23c1.52-0.76,3.05-1.52,4.57-2.27c1.84,1.51,3.6,3.12,5.54,4.5c8.17,5.83,16.37,11.62,24.61,17.35
	c2.22,1.54,4.61,2.84,6.93,4.24c0.84,9.52-5.23,14.77-13.67,14.66c-1.52-0.02-3.04-0.11-4.56-0.16c-0.48,0-0.97,0.01-1.45,0.01
	c-0.46-0.06-0.92-0.11-1.38-0.17c-0.37-0.2-0.71-0.51-1.1-0.57c-3.21-0.54-6.45-0.92-9.64-1.57c-11.53-2.36-22.65-5.88-32.91-11.8
	c-7.69-4.44-14.67-9.75-20.53-16.47c0-0.15,0-0.3,0-0.46c2.08-1.5,4.19-2.97,6.24-4.51c2.09-1.57,4.13-3.22,6.19-4.83
	c0.64,0.24,1.31,0.42,1.9,0.74c4.41,2.38,8.75,4.9,13.24,7.12c1.28,0.63,3.26,1.01,4.43,0.47
	C132.47,136.66,136.23,134.36,140.08,132.23z"/>
<path class="st3" d="M140.08,132.23c-3.85,2.13-7.61,4.44-11.59,6.28c-1.18,0.54-3.15,0.16-4.43-0.47
	c-4.49-2.22-8.83-4.74-13.24-7.12c-0.59-0.32-1.26-0.5-1.9-0.74c-4.63-2.57-9.29-5.1-13.9-7.72c-2.54-1.44-5-3.03-7.5-4.55
	c0.04-9.39,0.09-18.79,0.11-28.18c0-0.28-0.22-0.55-0.34-0.83c0.01-7.56,0.02-15.11,0.04-22.67c0.01-4.25,1.37-5.63,5.51-5.63
	c4.27,0,8.55,0,12.82,0.01c0.61,4.43,1.21,8.86,1.83,13.28c0.11,0.75,0.3,1.48,0.45,2.23l0.02,0.19c-2.94-0.17-4.59,1.14-4.65,3.67
	c-0.06,2.57,1.51,4.01,4.43,4.04c0.68,0.01,1.37-0.07,2.05-0.1l-0.02,0.2c0.01,0.12,0.04,0.24,0.06,0.36
	c0.74,2.45,1.49,4.89,2.23,7.34c-1.79,0.15-3.59,0.34-5.38,0.44c-2.08,0.11-3.22,1.16-3.36,3.22c-0.17,2.45,1.73,4.59,4.27,4.56
	c2.41-0.03,4.82-0.31,7.23-0.48c0.32,0.07,0.64,0.15,0.96,0.22c0.53,1.48,1.05,2.96,1.58,4.43c0.38,1.06,0.78,2.12,1.16,3.18
	c-3.66,0.05-7.32,0-10.97,0.19c-2.85,0.15-4.29,1.68-4.24,4.07c0.04,2.31,1.69,3.9,4.42,3.92c5.26,0.05,10.52-0.04,15.78-0.07
	c0.31,0.04,0.61,0.09,0.92,0.13c1.68,2.22,3.16,4.63,5.09,6.61C132.9,125.7,136.54,128.91,140.08,132.23z"/>
<path class="st4" d="M96.48,139.97c5.85,6.72,12.84,12.03,20.53,16.47c10.26,5.92,21.38,9.44,32.91,11.8
	c3.19,0.65,6.43,1.03,9.64,1.57c0.39,0.07,0.74,0.38,1.1,0.57c-0.83,0.05-1.67,0.15-2.5,0.15c-19.18,0.01-38.36,0.02-57.54,0
	c-5.96-0.01-11.92-0.08-17.88-0.15c-6.31-0.07-11.38-6.09-10.97-11.82c0.05-0.68,0.04-1.37,0.06-2.06c0.13-0.16,0.26-0.32,0.38-0.48
	c5.48-3.74,10.95-7.52,16.46-11.21C91.23,143.12,93.88,141.58,96.48,139.97z"/>
<path class="st5" d="M181.72,156.04c-2.31-1.41-4.71-2.7-6.93-4.24c-8.24-5.73-16.44-11.52-24.61-17.35
	c-1.93-1.38-3.7-2.99-5.54-4.5c6.6-3.55,13.2-7.09,19.78-10.66c0.65-0.35,1.19-0.89,1.79-1.34c0.78-0.26,1.61-0.41,2.32-0.79
	c4.41-2.31,8.8-4.68,13.2-7.02C181.73,125.44,181.72,140.74,181.72,156.04z"/>
<path class="st6" d="M96.48,139.97c-2.6,1.61-5.26,3.14-7.8,4.85c-5.52,3.69-10.98,7.47-16.46,11.21c-0.13-0.01-0.26-0.03-0.39-0.03
	c0-15.12,0-30.24,0-45.35c0.13-0.01,0.26-0.02,0.39-0.03c0.82,0.31,1.67,0.56,2.47,0.93c2.23,1.04,4.44,2.13,6.65,3.2
	c0.15,0.31,0.31,0.61,0.46,0.92c2.18,4.5,4.04,9.2,6.63,13.46c2.26,3.72,5.33,6.95,8.05,10.4
	C96.48,139.67,96.48,139.82,96.48,139.97z"/>
<path class="st2" d="M181.74,110.14c-4.4,2.35-8.79,4.71-13.2,7.02c-0.71,0.37-1.54,0.53-2.32,0.79
	c-0.01-9.68-0.02-19.35-0.03-29.03c3.66,1.95,7.46,3.69,10.95,5.9c3.21,2.04,4.41,5.48,4.64,9.17
	C181.91,106.03,181.76,108.09,181.74,110.14z"/>
<path class="st2" d="M81.81,115.66c-0.15-0.31-0.31-0.61-0.46-0.92c-1.08-3.62-2.25-7.22-3.2-10.88c-0.76-2.91-1.24-5.9-1.84-8.85
	c3.66-2.03,7.33-4.07,10.99-6.1c0.12,0.28,0.34,0.55,0.34,0.83c-0.02,9.39-0.07,18.79-0.11,28.18
	C85.62,117.16,83.71,116.41,81.81,115.66z"/>
<path class="st7" d="M76.29,95c0.6,2.95,1.09,5.94,1.84,8.85c0.95,3.66,2.13,7.26,3.2,10.88c-2.22-1.07-4.42-2.16-6.65-3.2
	c-0.79-0.37-1.64-0.62-2.47-0.93c-0.13-0.16-0.26-0.32-0.39-0.48c0.13-3.18-0.19-6.47,0.56-9.49C72.92,98.57,74.94,96.87,76.29,95z"
	/>
<path class="st8" d="M162.05,170.56c0.48,0,0.97-0.01,1.45-0.01C163.01,170.55,162.53,170.55,162.05,170.56z"/>
<path class="st9" d="M71.83,110.13c0.13,0.16,0.26,0.32,0.39,0.48c-0.13,0.02-0.26,0.03-0.39,0.03
	C71.83,110.47,71.83,110.3,71.83,110.13z"/>
<path class="st9" d="M71.83,156c0.13,0.01,0.26,0.02,0.39,0.03c-0.13,0.16-0.26,0.32-0.38,0.48C71.83,156.34,71.83,156.17,71.83,156
	z"/>
<path class="st5" d="M107.95,76.12c12.61,0.03,25.22,0.05,37.83,0.09c2.81,0.01,4.26,1.21,4.38,3.55c0.14,2.72-1.27,4.24-4.14,4.26
	c-6.34,0.04-12.69,0-19.03,0.02c-5.58,0.01-11.16,0.04-16.74,0.07c-0.16,0.01-0.31,0.01-0.47,0.02c0,0,0.02-0.2,0.02-0.2
	c-0.61-2.54-1.22-5.07-1.83-7.61C107.96,76.31,107.95,76.12,107.95,76.12z"/>
<path class="st5" d="M115.78,99.77c-0.32-0.07-0.64-0.15-0.96-0.22c-0.19-0.81-0.33-1.63-0.58-2.42c-0.55-1.72-1.15-3.43-1.73-5.14
	c9.09-0.05,18.19-0.09,27.28-0.13c1.99-0.01,3.98-0.02,5.96,0c2.86,0.04,4.39,1.37,4.41,3.8c0.03,2.67-1.37,4.02-4.34,4.03
	c-9.56,0.02-19.11,0.01-28.67,0.01C116.7,99.7,116.24,99.74,115.78,99.77z"/>
<path class="st5" d="M124.44,115.62c-0.31-0.04-0.61-0.09-0.92-0.13c-0.49-0.99-1-1.98-1.48-2.99c-0.74-1.56-1.47-3.12-2.2-4.68
	c0.97-0.1,1.95-0.28,2.92-0.28c7.62,0.04,15.24,0.11,22.85,0.18c3.15,0.03,4.52,1.18,4.54,3.79c0.02,2.49-1.55,4.01-4.46,4.03
	C138.61,115.62,131.52,115.6,124.44,115.62z"/>
<path class="st6" d="M119.84,107.82c0.73,1.56,1.46,3.13,2.2,4.68c0.48,1,0.98,1.99,1.48,2.99c-5.26,0.03-10.52,0.12-15.78,0.07
	c-2.73-0.03-4.38-1.61-4.42-3.92c-0.05-2.39,1.39-3.92,4.24-4.07c3.65-0.19,7.31-0.14,10.97-0.19
	C118.97,107.53,119.4,107.67,119.84,107.82z"/>
<path class="st10" d="M112.51,91.99c0.58,1.71,1.19,3.42,1.73,5.14c0.25,0.79,0.39,1.61,0.58,2.42c-2.41,0.17-4.82,0.45-7.23,0.48
	c-2.54,0.03-4.44-2.11-4.27-4.56c0.14-2.06,1.29-3.11,3.36-3.22c1.8-0.1,3.59-0.29,5.38-0.44
	C112.22,91.87,112.36,91.93,112.51,91.99z"/>
<path class="st11" d="M109.78,84.12c0.16-0.01,0.31-0.01,0.47-0.02c-0.14,0.12-0.27,0.25-0.4,0.37
	C109.81,84.36,109.79,84.24,109.78,84.12z"/>
<path class="st5" d="M81.81,115.66c1.9,0.75,3.81,1.5,5.71,2.25c2.5,1.52,4.96,3.1,7.5,4.54c4.61,2.62,9.26,5.15,13.9,7.72
	c-2.06,1.61-4.1,3.26-6.19,4.83c-2.05,1.54-4.16,3.01-6.24,4.51c-2.71-3.45-5.78-6.68-8.05-10.4
	C85.85,124.86,83.99,120.16,81.81,115.66z"/>
<path class="st12" d="M107.96,76.31c0.61,2.54,1.22,5.07,1.83,7.61c-0.68,0.04-1.37,0.11-2.05,0.1c-2.91-0.03-4.48-1.47-4.43-4.04
	C103.37,77.45,105.02,76.14,107.96,76.31z"/>
</svg>
